<svg width="229" height="51" viewBox="0 0 229 51" fill="none" xmlns="http://www.w3.org/2000/svg">
<path d="M0.0454545 50V3.45454H31.4091V11.5682H9.88636V22.6591H29.7955V30.7727H9.88636V41.8864H31.5V50H0.0454545ZM39.0511 50V15.0909H48.4375V21.1818H48.8011C49.4375 19.0152 50.5057 17.3788 52.0057 16.2727C53.5057 15.1515 55.233 14.5909 57.1875 14.5909C57.6723 14.5909 58.1951 14.6212 58.7557 14.6818C59.3163 14.7424 59.8087 14.8258 60.233 14.9318V23.5227C59.7784 23.3864 59.1496 23.2652 58.3466 23.1591C57.5436 23.053 56.8087 23 56.142 23C54.7178 23 53.4451 23.3106 52.3239 23.9318C51.2178 24.5379 50.339 25.3864 49.6875 26.4773C49.0511 27.5682 48.733 28.8258 48.733 30.25V50H39.0511ZM74.1932 50.6591C71.9659 50.6591 69.9811 50.2727 68.2386 49.5C66.4962 48.7121 65.1174 47.553 64.1023 46.0227C63.1023 44.4773 62.6023 42.553 62.6023 40.25C62.6023 38.3106 62.9583 36.6818 63.6705 35.3636C64.3826 34.0455 65.3523 32.9848 66.5795 32.1818C67.8068 31.3788 69.2008 30.7727 70.7614 30.3636C72.3371 29.9545 73.9886 29.6667 75.7159 29.5C77.7462 29.2879 79.3826 29.0909 80.625 28.9091C81.8674 28.7121 82.7689 28.4242 83.3295 28.0455C83.8902 27.6667 84.1705 27.1061 84.1705 26.3636V26.2273C84.1705 24.7879 83.7159 23.6742 82.8068 22.8864C81.9129 22.0985 80.6402 21.7045 78.9886 21.7045C77.2462 21.7045 75.8598 22.0909 74.8295 22.8636C73.7992 23.6212 73.1174 24.5758 72.7841 25.7273L63.8295 25C64.2841 22.8788 65.178 21.0455 66.5114 19.5C67.8447 17.9394 69.5644 16.7424 71.6705 15.9091C73.7917 15.0606 76.2462 14.6364 79.0341 14.6364C80.9735 14.6364 82.8295 14.8636 84.6023 15.3182C86.3902 15.7727 87.9735 16.4773 89.3523 17.4318C90.7462 18.3864 91.8447 19.6136 92.6477 21.1136C93.4508 22.5985 93.8523 24.3788 93.8523 26.4545V50H84.6705V45.1591H84.3977C83.8371 46.25 83.0871 47.2121 82.1477 48.0455C81.2083 48.8636 80.0795 49.5076 78.7614 49.9773C77.4432 50.4318 75.9205 50.6591 74.1932 50.6591ZM76.9659 43.9773C78.3902 43.9773 79.6477 43.697 80.7386 43.1364C81.8295 42.5606 82.6856 41.7879 83.3068 40.8182C83.928 39.8485 84.2386 38.75 84.2386 37.5227V33.8182C83.9356 34.0152 83.5189 34.197 82.9886 34.3636C82.4735 34.5152 81.8902 34.6591 81.2386 34.7955C80.5871 34.9167 79.9356 35.0303 79.2841 35.1364C78.6326 35.2273 78.0417 35.3106 77.5114 35.3864C76.375 35.553 75.3826 35.8182 74.5341 36.1818C73.6856 36.5455 73.0265 37.0379 72.5568 37.6591C72.0871 38.2652 71.8523 39.0227 71.8523 39.9318C71.8523 41.25 72.3295 42.2576 73.2841 42.9545C74.2538 43.6364 75.4811 43.9773 76.9659 43.9773Z" fill="#1650E5"/>
<path d="M101.545 50V3.45454H111.386V41.8864H131.341V50H101.545ZM137.676 50V15.0909H147.358V50H137.676ZM142.54 10.5909C141.1 10.5909 139.866 10.1136 138.835 9.15909C137.82 8.18939 137.312 7.0303 137.312 5.68182C137.312 4.34848 137.82 3.20454 138.835 2.25C139.866 1.2803 141.1 0.795452 142.54 0.795452C143.979 0.795452 145.206 1.2803 146.222 2.25C147.252 3.20454 147.767 4.34848 147.767 5.68182C147.767 7.0303 147.252 8.18939 146.222 9.15909C145.206 10.1136 143.979 10.5909 142.54 10.5909ZM164.795 29.8182V50H155.114V15.0909H164.341V21.25H164.75C165.523 19.2197 166.818 17.6136 168.636 16.4318C170.455 15.2348 172.659 14.6364 175.25 14.6364C177.674 14.6364 179.788 15.1667 181.591 16.2273C183.394 17.2879 184.795 18.803 185.795 20.7727C186.795 22.7273 187.295 25.0606 187.295 27.7727V50H177.614V29.5C177.629 27.3636 177.083 25.697 175.977 24.5C174.871 23.2879 173.348 22.6818 171.409 22.6818C170.106 22.6818 168.955 22.9621 167.955 23.5227C166.97 24.0833 166.197 24.9015 165.636 25.9773C165.091 27.0379 164.811 28.3182 164.795 29.8182ZM203.699 39.9545L203.722 28.3409H205.131L216.312 15.0909H227.426L212.403 32.6364H210.108L203.699 39.9545ZM194.926 50V3.45454H204.608V50H194.926ZM216.744 50L206.472 34.7955L212.926 27.9545L228.085 50H216.744Z" fill="#030F2D"/>
</svg>
